<svg width="24" height="24" viewBox="0 0 24 24" fill="none" xmlns="http://www.w3.org/2000/svg">
<path d="M13.3932 17.4998C13.7702 17.5006 13.6052 17.3754 13.5992 17.1925C13.5922 17.0095 13.6967 16.9243 13.8798 16.9173C15.0499 16.8308 15.7015 16.559 16.8377 16.2647C16.8656 16.2577 16.8924 16.2547 16.9203 16.2547C17.967 16.2547 18.8953 15.5825 19.2196 14.589C19.544 13.5946 19.1918 12.5047 18.3471 11.8883C18.2297 11.8027 18.1819 11.6506 18.2297 11.5133C18.6625 10.2554 17.9978 8.8841 16.7422 8.44343C16.6536 8.4126 16.583 8.34598 16.5462 8.26046C16.5094 8.17493 16.5114 8.07748 16.5502 7.99196C16.6974 7.67473 16.774 7.32966 16.773 6.97962C16.7701 5.96827 16.1402 5.06435 15.192 4.71232C15.0478 4.65962 14.9592 4.51543 14.9771 4.36328C15.0547 3.70296 14.8567 3.03969 14.4289 2.52955C14.0011 2.01941 13.3822 1.70814 12.7176 1.66937C12.0529 1.6306 11.4022 1.86726 10.9177 2.3237C10.4331 2.78015 10.1585 3.4156 10.1585 4.08085C10.1585 4.12361 10.1595 4.16936 10.1625 4.22007C10.1675 4.31454 10.1326 4.40802 10.065 4.47465C9.99733 4.54128 9.90479 4.57608 9.80928 4.56912C9.75555 4.56514 9.69983 4.56315 9.64511 4.56315C8.31086 4.56415 7.23032 5.64609 7.22833 6.97962C7.22734 7.32966 7.30296 7.67474 7.45021 7.99196C7.49001 8.07749 7.49101 8.17494 7.45519 8.26046C7.41837 8.34599 7.34773 8.41261 7.25918 8.44344C6.00353 8.88398 5.33889 10.2553 5.77172 11.5134C5.81848 11.6506 5.77172 11.8027 5.65431 11.8883C4.80859 12.5048 4.45638 13.5947 4.78172 14.589C5.10607 15.5825 6.03439 16.2547 7.08008 16.2547C7.10794 16.2547 7.1358 16.2577 7.16266 16.2647C8.2989 16.559 8.64817 16.726 9.81818 16.8125C9.75948 16.7459 9.90674 16.8185 9.81818 16.8125C9.87589 16.8791 9.82515 17.4115 9.81818 17.5C9.81221 17.5875 9.88485 17.4423 9.81818 17.5C9.75053 17.5567 9.90673 17.508 9.81818 17.5C8.62124 17.4115 8.19934 17.2143 7.0362 16.916C5.75569 16.8981 4.61942 16.0896 4.18369 14.8854C3.74791 13.6821 4.10409 12.3338 5.07617 11.5013C4.70704 10.0763 5.39655 8.58949 6.72283 7.95026C6.41936 7.03638 6.56164 6.03301 7.10787 5.23853C7.65311 4.44497 8.53864 3.95173 9.50175 3.90599C9.59528 2.2413 10.9972 0.953432 12.6637 1.00129C14.3313 1.04902 15.6576 2.41438 15.6556 4.08113C15.6556 4.11693 15.6556 4.15273 15.6536 4.18853C16.7371 4.69669 17.4306 5.78359 17.4346 6.97994C17.4346 7.3101 17.3818 7.63824 17.2774 7.95051C18.6036 8.58992 19.2932 10.0776 18.924 11.5016C19.8971 12.3349 20.2523 13.6823 19.8155 14.8866C19.3797 16.0909 18.2435 16.8994 16.962 16.9173C15.7999 17.2146 15.3788 17.4115 14.1818 17.5C14.1749 17.502 13.4012 17.4998 13.3932 17.4998Z" fill="currentColor"/>
<path d="M9.81818 16.8125C8.64817 16.726 8.2989 16.559 7.16266 16.2647C7.1358 16.2577 7.10794 16.2547 7.08008 16.2547C6.03439 16.2547 5.10607 15.5825 4.78172 14.589C4.45638 13.5947 4.80859 12.5048 5.65431 11.8883C5.77172 11.8027 5.81848 11.6506 5.77172 11.5134C5.33889 10.2553 6.00353 8.88398 7.25918 8.44344C7.34773 8.41261 7.41837 8.34599 7.45519 8.26046C7.49101 8.17494 7.49001 8.07749 7.45021 7.99196C7.30296 7.67474 7.22734 7.32966 7.22833 6.97962C7.23032 5.64609 8.31086 4.56415 9.64511 4.56315C9.69983 4.56315 9.75555 4.56514 9.80928 4.56912C9.90479 4.57608 9.99733 4.54128 10.065 4.47465C10.1326 4.40802 10.1675 4.31454 10.1625 4.22007C10.1595 4.16936 10.1585 4.12361 10.1585 4.08085C10.1585 3.4156 10.4331 2.78015 10.9177 2.3237C11.4022 1.86726 12.0529 1.6306 12.7176 1.66937C13.3822 1.70814 14.0011 2.01941 14.4289 2.52955C14.8567 3.03969 15.0547 3.70296 14.9771 4.36328C14.9592 4.51543 15.0478 4.65962 15.192 4.71232C16.1402 5.06435 16.7701 5.96827 16.773 6.97962C16.774 7.32966 16.6974 7.67473 16.5502 7.99196C16.5114 8.07748 16.5094 8.17493 16.5462 8.26046C16.583 8.34598 16.6536 8.4126 16.7422 8.44343C17.9978 8.8841 18.6625 10.2554 18.2297 11.5133C18.1819 11.6506 18.2297 11.8027 18.3471 11.8883C19.1918 12.5047 19.544 13.5946 19.2196 14.589C18.8953 15.5825 17.967 16.2547 16.9203 16.2547C16.8924 16.2547 16.8656 16.2577 16.8377 16.2647C15.7015 16.559 15.0499 16.8308 13.8798 16.9173C13.6967 16.9243 13.5922 17.0095 13.5992 17.1925C13.6052 17.3754 13.7702 17.5006 13.3932 17.4998C13.4012 17.4998 14.1749 17.502 14.1818 17.5C15.3788 17.4115 15.7999 17.2146 16.962 16.9173C18.2435 16.8994 19.3797 16.0909 19.8155 14.8866C20.2523 13.6823 19.8971 12.3349 18.924 11.5016C19.2932 10.0776 18.6036 8.58992 17.2774 7.95051C17.3818 7.63824 17.4346 7.3101 17.4346 6.97994C17.4306 5.78359 16.7371 4.69669 15.6536 4.18853C15.6556 4.15273 15.6556 4.11693 15.6556 4.08113C15.6576 2.41438 14.3313 1.04902 12.6637 1.00129C10.9972 0.953432 9.59528 2.2413 9.50175 3.90599C8.53864 3.95173 7.65311 4.44497 7.10787 5.23853C6.56164 6.03301 6.41936 7.03638 6.72283 7.95026C5.39655 8.58949 4.70704 10.0763 5.07617 11.5013C4.10409 12.3338 3.74791 13.6821 4.18369 14.8854C4.61942 16.0896 5.75569 16.8981 7.0362 16.916C8.19934 17.2143 8.62124 17.4115 9.81818 17.5M9.81818 16.8125C9.90674 16.8185 9.75948 16.7459 9.81818 16.8125ZM9.81818 16.8125C9.87589 16.8791 9.82515 17.4115 9.81818 17.5M9.81818 17.5C9.81221 17.5875 9.88485 17.4423 9.81818 17.5ZM9.81818 17.5C9.75053 17.5567 9.90673 17.508 9.81818 17.5Z" stroke="currentColor" stroke-width="0.3"/>
<path d="M10.2782 22.9998C9.93014 22.9976 9.58334 22.9704 9.24043 22.916C8.89235 22.8627 8.59823 22.6667 8.45565 22.3924C8.31051 22.1138 8.33877 21.7916 8.53015 21.5336C9.81199 19.8029 9.81199 15.1604 9.81199 15.1136L9.81327 15.1125C9.81327 14.9122 10.0046 14.75 10.2397 14.75C10.476 14.75 10.6674 14.9122 10.6674 15.1125C10.6674 15.3117 10.6674 20.0141 9.25327 21.9201V21.9212C9.21217 21.9746 9.20575 22.0431 9.23658 22.1019C9.26483 22.1563 9.32263 22.1955 9.39071 22.2053C10.0599 22.3076 10.6507 22.3011 11.0977 22.1857C11.686 22.0344 12.314 22.0344 12.9023 22.1857C13.348 22.3 13.9363 22.3076 14.6016 22.2064C14.6735 22.1966 14.7339 22.1563 14.7634 22.0997C14.793 22.041 14.7866 21.9746 14.7467 21.9212C13.3326 20.0152 13.3326 15.3128 13.3326 15.1136V15.1125C13.3326 14.9122 13.524 14.75 13.7603 14.75C13.9954 14.75 14.1867 14.9122 14.1867 15.1125C14.1867 15.1593 14.1867 19.804 15.4686 21.5325L15.4699 21.5336C15.6612 21.7894 15.6895 22.1094 15.5457 22.3859C15.4018 22.6635 15.1051 22.8616 14.7532 22.916C13.9427 23.039 13.2375 23.0259 12.6544 22.8757C12.228 22.7658 11.7733 22.7658 11.3469 22.8757C11.0001 22.9617 10.6404 23.0031 10.2782 22.9998Z" fill="currentColor" stroke="currentColor" stroke-width="0.2"/>
<path d="M6.90915 14.75C6.47254 14.75 6.03224 14.5591 5.60537 14.176C5.43096 14.0189 5.40413 13.7346 5.54439 13.5424C5.68586 13.3488 5.94197 13.319 6.11516 13.4747C6.66399 13.9675 7.15306 13.9675 7.70067 13.4747H7.70189C7.87629 13.319 8.13241 13.3488 8.27388 13.5424C8.41414 13.736 8.38731 14.0203 8.2129 14.1773C7.78603 14.5591 7.34702 14.75 6.90915 14.75Z" fill="currentColor"/>
<path d="M17.0908 14.75C16.6541 14.75 16.2137 14.5578 15.7868 14.1746V14.176C15.6124 14.0189 15.5855 13.7346 15.727 13.5424C15.8673 13.3488 16.1235 13.319 16.2979 13.4747C16.8468 13.9675 17.336 13.9675 17.8836 13.4747C18.0581 13.319 18.3142 13.3488 18.4545 13.5424C18.596 13.7346 18.5692 14.0189 18.3947 14.176C17.9678 14.5591 17.5299 14.75 17.0908 14.75Z" fill="currentColor"/>
<path d="M12.7275 13.375C12.2908 13.375 11.8505 13.1828 11.4235 12.7996V12.801C11.2491 12.6439 11.2223 12.3596 11.3638 12.1674C11.504 11.9738 11.7602 11.944 11.9346 12.0997C12.4835 12.5925 12.9727 12.5925 13.5204 12.0997C13.6948 11.944 13.951 11.9738 14.0912 12.1674C14.2327 12.3596 14.2059 12.6439 14.0315 12.801C13.6045 13.1841 13.1667 13.375 12.7275 13.375Z" fill="currentColor"/>
<path d="M9.81833 10.625C9.38165 10.625 8.94129 10.4328 8.51435 10.0496V10.051C8.33992 9.89391 8.31308 9.60962 8.45458 9.41737C8.59485 9.22377 8.85101 9.19399 9.02544 9.34968C9.57435 9.84249 10.0635 9.84249 10.6112 9.34968C10.7856 9.19399 11.0418 9.22377 11.1821 9.41737C11.3236 9.60962 11.2967 9.89392 11.1223 10.051C10.6953 10.4341 10.2575 10.625 9.81833 10.625Z" fill="currentColor"/>
<path d="M11.2729 6.5C10.8362 6.5 10.3959 6.30775 9.96894 5.9246V5.92596C9.79451 5.76891 9.76767 5.48462 9.90917 5.29237C10.0494 5.09877 10.3056 5.06899 10.48 5.22468C11.0289 5.71749 11.5181 5.71749 12.0658 5.22468C12.2402 5.06899 12.4964 5.09877 12.6366 5.29237C12.7781 5.48462 12.7513 5.76892 12.5769 5.92596C12.1499 6.3091 11.7121 6.5 11.2729 6.5Z" fill="currentColor"/>
<path d="M14.1816 9.25C13.7449 9.25 13.3046 9.05775 12.8776 8.6746V8.67596C12.7032 8.51891 12.6764 8.23462 12.8179 8.04237C12.9581 7.84877 13.2143 7.81899 13.3887 7.97468C13.9376 8.46749 14.4268 8.46749 14.9745 7.97468C15.1489 7.81899 15.4051 7.84877 15.5453 8.04237C15.6868 8.23462 15.66 8.51892 15.4856 8.67596C15.0586 9.0591 14.6208 9.25 14.1816 9.25Z" fill="currentColor"/>
</svg>
