<svg width="24" height="24" viewBox="0 0 24 24" fill="none" xmlns="http://www.w3.org/2000/svg">
<path d="M12 1C13.6254 1 14.9414 2.31822 14.9414 3.9464V13.9364L15.0773 14.0432C16.2872 14.9902 17 16.441 17 17.9901C17 20.7555 14.76 23 12 23C9.24001 23 7 20.7555 7 17.9901C7 16.441 7.71276 14.9902 8.92275 14.0432L9.05861 13.9364V3.9464C9.05861 2.31822 10.3746 1 12 1ZM12 1.61778C10.7217 1.61778 9.67677 2.66594 9.67677 3.9464V14.1002C9.67677 14.2021 9.62555 14.2983 9.5409 14.356C8.33732 15.1748 7.61815 16.5357 7.61815 17.9915C7.61815 20.4092 9.58714 22.3822 12 22.3822C14.4129 22.3822 16.3833 20.4092 16.3833 17.9915C16.3833 16.5357 15.6641 15.1755 14.4605 14.356C14.3752 14.2976 14.3247 14.2029 14.3247 14.1002V3.9464C14.3247 2.66594 13.279 1.61778 12 1.61778ZM12 10.5C12.175 10.5 12.3101 10.6347 12.3101 10.8092V15.6472L12.5783 15.7156C13.5906 15.9735 14.3424 16.8927 14.3424 17.9893C14.3424 19.2869 13.2946 20.3372 12 20.3372C10.7054 20.3372 9.65756 19.2869 9.65756 17.9893C9.65756 16.892 10.4109 15.9735 11.4231 15.7156L11.6913 15.6472V10.8092C11.6913 10.634 11.8243 10.5 12 10.5ZM12 16.2621C11.0518 16.2621 10.2743 17.0409 10.2743 17.9908C10.2743 18.9406 11.0518 19.7194 12 19.7194C12.9482 19.7194 13.7271 18.9413 13.7271 17.9908C13.7271 17.0402 12.9482 16.2621 12 16.2621Z" fill="currentColor" stroke="currentColor" stroke-width="0.4"/>
<path d="M14.5 8H11.5M14.5 5H11.5" stroke="currentColor" stroke-linecap="round" stroke-linejoin="round"/>
<path d="M14.5 8H11.5M14.5 5H11.5" stroke="currentColor" stroke-linecap="round" stroke-linejoin="round"/>
</svg>
