<svg width="24" height="24" viewBox="0 0 24 24" fill="none" xmlns="http://www.w3.org/2000/svg">
<g clip-path="url(#clip0_101_377)">
<path d="M9.32102 17.5V6.59091H13.0071C13.8629 6.59091 14.5625 6.74538 15.1058 7.05433C15.6527 7.35973 16.0575 7.77344 16.3203 8.29545C16.5831 8.81747 16.7145 9.39986 16.7145 10.0426C16.7145 10.6854 16.5831 11.2695 16.3203 11.7951C16.0611 12.3207 15.6598 12.7397 15.1165 13.0522C14.5732 13.3612 13.8771 13.5156 13.0284 13.5156H10.3864V12.3438H12.9858C13.5717 12.3438 14.0423 12.2425 14.3974 12.0401C14.7525 11.8377 15.0099 11.5643 15.1697 11.2198C15.3331 10.8718 15.4148 10.4794 15.4148 10.0426C15.4148 9.60582 15.3331 9.2152 15.1697 8.87074C15.0099 8.52628 14.7507 8.25639 14.392 8.06108C14.0334 7.86222 13.5575 7.76278 12.9645 7.76278H10.642V17.5H9.32102Z" fill="currentColor"/>
<circle cx="12" cy="12" r="10.5" stroke="currentColor"/>
</g>
<defs>
<clipPath id="clip0_101_377">
<rect width="24" height="24" fill="currentColor"/>
</clipPath>
</defs>
</svg>
