<svg width="24" height="24" viewBox="0 0 24 24" fill="none" xmlns="http://www.w3.org/2000/svg">
<path d="M2 7H22" stroke="currentColor" stroke-linecap="round"/>
<path d="M2 7H22" stroke="currentColor" stroke-linecap="round"/>
<path d="M12 4.66667C12 3.33333 12.625 2 14.5 2C15.75 2 17 2.66667 17 4.66667V12.5" stroke="currentColor" stroke-linecap="round"/>
<path d="M12 4.66667C12 3.33333 12.625 2 14.5 2C15.75 2 17 2.66667 17 4.66667V12.5" stroke="currentColor" stroke-linecap="round"/>
<path d="M7 4.66667C7 3.33333 7.625 2 9.5 2C10.75 2 12 2.66667 12 4.66667V12" stroke="currentColor" stroke-linecap="round"/>
<path d="M7 4.66667C7 3.33333 7.625 2 9.5 2C10.75 2 12 2.66667 12 4.66667V12" stroke="currentColor" stroke-linecap="round"/>
<path d="M21.6478 18C20.7093 18 20.2164 17.6003 19.7934 17.2445C19.394 16.911 19.0891 16.6669 18.4319 16.6669C17.7511 16.6669 17.4225 16.9334 17.0467 17.2445C16.6247 17.6003 16.1545 18 15.2159 18C14.2774 18 13.7845 17.6003 13.3615 17.2445C12.9621 16.911 12.6572 16.6669 12 16.6669C11.3192 16.6669 10.9906 16.9334 10.6149 17.2445C10.1928 17.6003 9.72262 18 8.78406 18C7.8455 18 7.35263 17.6003 6.92965 17.2445C6.53025 16.911 6.22529 16.6669 5.56811 16.6669C4.88734 16.6669 4.55875 16.9334 4.18298 17.2445C3.76091 17.6003 3.29074 18 2.35218 18C2.16429 18 2 17.8444 2 17.6665C2 17.4886 2.16429 17.3331 2.35218 17.3331C3.00934 17.3331 3.31432 17.0666 3.71372 16.7555C4.13579 16.3997 4.62867 16 5.56813 16C6.50669 16 6.97686 16.3997 7.39894 16.7555C7.77472 17.0666 8.10329 17.3331 8.78406 17.3331C9.44122 17.3331 9.7462 17.0666 10.1456 16.7555C10.5677 16.3997 11.0605 16 12 16C12.9386 16 13.4087 16.3997 13.8308 16.7555C14.2066 17.0666 14.5352 17.3331 15.2159 17.3331C15.8731 17.3331 16.1781 17.0666 16.5775 16.7555C16.9996 16.3997 17.4924 16 18.4319 16C19.3705 16 19.8406 16.3997 20.2627 16.7555C20.6385 17.0666 20.9671 17.3331 21.6478 17.3331C21.8357 17.3331 22 17.4886 22 17.6665C22 17.8444 21.8357 18 21.6478 18Z" fill="currentColor" stroke="currentColor" stroke-width="0.4"/>
<path d="M21.6478 14C20.7093 14 20.2164 13.6003 19.7934 13.2445C19.394 12.911 19.0891 12.6669 18.4319 12.6669C17.7511 12.6669 17.4225 12.9334 17.0467 13.2445C16.6247 13.6003 16.1545 14 15.2159 14C14.2774 14 13.7845 13.6003 13.3615 13.2445C12.9621 12.911 12.6572 12.6669 12 12.6669C11.3192 12.6669 10.9906 12.9334 10.6149 13.2445C10.1928 13.6003 9.72262 14 8.78406 14C7.8455 14 7.35263 13.6003 6.92965 13.2445C6.53025 12.911 6.22529 12.6669 5.56811 12.6669C4.88734 12.6669 4.55875 12.9334 4.18298 13.2445C3.76091 13.6003 3.29074 14 2.35218 14C2.16429 14 2 13.8444 2 13.6665C2 13.4886 2.16429 13.3331 2.35218 13.3331C3.00934 13.3331 3.31432 13.0666 3.71372 12.7555C4.13579 12.3997 4.62867 12 5.56813 12C6.50669 12 6.97686 12.3997 7.39894 12.7555C7.77472 13.0666 8.10329 13.3331 8.78406 13.3331C9.44122 13.3331 9.7462 13.0666 10.1456 12.7555C10.5677 12.3997 11.0605 12 12 12C12.9386 12 13.4087 12.3997 13.8308 12.7555C14.2066 13.0666 14.5352 13.3331 15.2159 13.3331C15.8731 13.3331 16.1781 13.0666 16.5775 12.7555C16.9996 12.3997 17.4924 12 18.4319 12C19.3705 12 19.8406 12.3997 20.2627 12.7555C20.6385 13.0666 20.9671 13.3331 21.6478 13.3331C21.8357 13.3331 22 13.4886 22 13.6665C22 13.8444 21.8357 14 21.6478 14Z" fill="currentColor" stroke="currentColor" stroke-width="0.4"/>
<path d="M21.6478 22C20.7093 22 20.2164 21.6003 19.7934 21.2445C19.394 20.911 19.0891 20.6669 18.4319 20.6669C17.7511 20.6669 17.4225 20.9334 17.0467 21.2445C16.6247 21.6003 16.1545 22 15.2159 22C14.2774 22 13.7845 21.6003 13.3615 21.2445C12.9621 20.911 12.6572 20.6669 12 20.6669C11.3192 20.6669 10.9906 20.9334 10.6149 21.2445C10.1928 21.6003 9.72262 22 8.78406 22C7.8455 22 7.35263 21.6003 6.92965 21.2445C6.53025 20.911 6.22529 20.6669 5.56811 20.6669C4.88734 20.6669 4.55875 20.9334 4.18298 21.2445C3.76091 21.6003 3.29074 22 2.35218 22C2.16429 22 2 21.8444 2 21.6665C2 21.4886 2.16429 21.3331 2.35218 21.3331C3.00934 21.3331 3.31432 21.0666 3.71372 20.7555C4.13579 20.3997 4.62867 20 5.56813 20C6.50669 20 6.97686 20.3997 7.39894 20.7555C7.77472 21.0666 8.10329 21.3331 8.78406 21.3331C9.44122 21.3331 9.7462 21.0666 10.1456 20.7555C10.5677 20.3997 11.0605 20 12 20C12.9386 20 13.4087 20.3997 13.8308 20.7555C14.2066 21.0666 14.5352 21.3331 15.2159 21.3331C15.8731 21.3331 16.1781 21.0666 16.5775 20.7555C16.9996 20.3997 17.4924 20 18.4319 20C19.3705 20 19.8406 20.3997 20.2627 20.7555C20.6385 21.0666 20.9671 21.3331 21.6478 21.3331C21.8357 21.3331 22 21.4886 22 21.6665C22 21.8444 21.8357 22 21.6478 22Z" fill="currentColor" stroke="currentColor" stroke-width="0.4"/>
</svg>
