<svg width="24" height="24" viewBox="0 0 24 24" fill="none" xmlns="http://www.w3.org/2000/svg">
<path d="M9.88137 18.7679C4.97258 18.7679 1 14.7902 1 9.88137C1 4.97258 4.97774 1 9.88653 1C14.7953 1 18.7679 4.97774 18.7679 9.88653C18.7679 12.24 17.8317 14.5006 16.1661 16.1661C14.5006 17.8369 12.2402 18.7732 9.88137 18.7679ZM9.88137 3.64296C6.43635 3.64813 3.64839 6.44138 3.64839 9.88627C3.65356 13.3313 6.44681 16.1193 9.8917 16.1193C13.3367 16.1141 16.1247 13.3208 16.1247 9.87594C16.1247 8.22586 15.4626 6.63789 14.2987 5.46889C13.1297 4.2947 11.5418 3.64296 9.88137 3.64296Z" fill="white"/>
<path d="M21.6802 23C21.3285 23 20.9923 22.8604 20.744 22.6121L14.2988 16.1721C13.8075 15.629 13.8592 14.791 14.4023 14.2996C14.9041 13.8496 15.6644 13.8496 16.1661 14.2944L22.6164 20.7344C23.1337 21.2516 23.1337 22.0895 22.6164 22.6069C22.3681 22.8552 22.0319 22.9949 21.6802 22.9949L21.675 23H21.6802Z" fill="white"/>
</svg>
