<svg width="24" height="24" viewBox="0 0 24 24" fill="currentColor" xmlns="http://www.w3.org/2000/svg">
<path fill-rule="evenodd" clip-rule="evenodd" d="M20.7369 22H3.26299C2.56821 22 2 21.4318 2 20.7371V15.4246C2 15.1489 2.22461 14.9243 2.50033 14.9243H4.27538C4.55112 14.9243 4.77571 15.1489 4.77571 15.4246V19.2243H19.2243V15.4246C19.2243 15.1489 19.4489 14.9243 19.7246 14.9243H21.4997C21.7754 14.9243 22 15.1489 22 15.4246V20.7371C22 21.4318 21.4317 22 20.7369 22ZM13.3878 16.2284V6.97551H15.3447C15.4964 6.97551 15.6263 6.89422 15.6925 6.75679C15.7587 6.62019 15.7411 6.46765 15.6464 6.34867L12.3016 2.14582C12.2262 2.05028 12.1214 2 11.9999 2C11.8784 2 11.7736 2.05028 11.6982 2.14582L8.35337 6.34867C8.25866 6.46767 8.2419 6.62019 8.30727 6.75679C8.37348 6.89339 8.50338 6.97551 8.65508 6.97551H10.612V16.2284C10.612 16.4924 10.8282 16.7086 11.0922 16.7086H12.9075C13.1715 16.7086 13.3878 16.4924 13.3878 16.2284Z" fill="currentColor"/>
</svg>
