<svg width="24" height="24" viewBox="0 0 24 24" fill="none" xmlns="http://www.w3.org/2000/svg">
<path d="M12 1C5.94398 1 1.00929 5.93225 1.00001 11.995C0.995768 14.9879 2.17679 17.8896 4.241 19.9562C6.20177 21.9188 8.80649 23 11.5759 23C11.7236 23 11.8724 22.9971 12.022 22.9907C18.1778 22.7386 23 17.9089 23 11.9958C23 5.93251 18.0656 1 12 1ZM11.9783 21.9313C11.8435 21.9369 11.7091 21.9395 11.5757 21.9395C9.38282 21.9395 7.30535 21.1834 5.63791 19.7955C5.63844 19.7849 5.64109 19.7748 5.64109 19.764C5.64109 16.9776 7.27538 14.6064 9.72283 13.7996C10.3387 14.1148 11.0338 14.2964 11.7722 14.2964C12.5103 14.2964 13.2057 14.1148 13.8218 13.7996C16.3273 14.6223 18.0664 17.0319 18.0791 19.7338C16.4042 21.0275 14.2963 21.8361 11.9783 21.9313ZM11.7722 13.236C9.86737 13.236 8.31796 11.6872 8.31796 9.78308C8.31796 7.87901 9.86737 6.33019 11.7722 6.33019C13.677 6.33019 15.2264 7.87927 15.2264 9.78308C15.2264 11.6869 13.677 13.236 11.7722 13.236ZM19.0787 18.8544C18.7628 16.3166 17.149 14.1061 14.8588 13.0682C15.7359 12.2444 16.2873 11.0782 16.2873 9.78308C16.2873 7.29442 14.2618 5.26972 11.7722 5.26972C9.28256 5.26972 7.25708 7.29442 7.25708 9.78308C7.25708 11.079 7.80927 12.2455 8.68714 13.0695C6.46168 14.0907 4.938 16.2581 4.63962 18.8339C2.99181 16.9969 2.05744 14.5343 2.06142 11.9963C2.06964 6.51763 6.52825 2.06021 12.0005 2.06021C17.4805 2.06047 21.9391 6.51736 21.9391 11.9958C21.9391 14.6538 20.8554 17.0693 19.0787 18.8544Z" fill="white"/>
</svg>
