<svg width="24" height="24" viewBox="0 0 24 24" fill="none" xmlns="http://www.w3.org/2000/svg">
<path d="M22.7955 10.1296C22.7313 10.1892 22.6552 10.2363 22.5716 10.2682C22.4879 10.3002 22.3984 10.3164 22.3081 10.3159C22.2179 10.3153 22.1286 10.2981 22.0454 10.2652C21.9622 10.2323 21.8867 10.1843 21.8233 10.1239C20.5408 8.90221 19.011 7.93373 17.324 7.2755C15.637 6.61727 13.8268 6.28259 11.9999 6.29116C10.1731 6.28268 8.36283 6.61747 6.67579 7.27583C4.98876 7.93418 3.45902 8.90279 2.17662 10.1246C2.11317 10.185 2.0377 10.233 1.9545 10.2659C1.87131 10.2988 1.78202 10.316 1.69174 10.3166C1.60146 10.3171 1.51195 10.3009 1.42833 10.2689C1.34471 10.237 1.26861 10.1899 1.20438 10.1303C1.14014 10.0707 1.08904 9.99984 1.05397 9.92172C1.01891 9.84359 1.00057 9.75975 1.00001 9.67497C0.999455 9.59019 1.01668 9.50614 1.05072 9.42762C1.08475 9.34909 1.13492 9.27763 1.19837 9.21731C2.63133 7.85086 4.34696 6.77429 6.23964 6.05386C9.93477 4.64871 14.0671 4.64871 17.7623 6.05386C19.6542 6.7743 21.3691 7.85062 22.8015 9.2166C22.865 9.27691 22.9152 9.34836 22.9493 9.42689C22.9833 9.50542 23.0005 9.58948 23 9.67427C22.9994 9.75905 22.9811 9.84291 22.946 9.92103C22.9109 9.99916 22.8598 10.07 22.7955 10.1296ZM11.9999 14.0992C11.2641 14.0969 10.5355 14.2351 9.85843 14.5055C9.18133 14.776 8.56992 15.173 8.0614 15.6724C7.93483 15.7957 7.86561 15.9612 7.86897 16.1324C7.87233 16.3037 7.94799 16.4666 8.07931 16.5855C8.21062 16.7043 8.38684 16.7693 8.5692 16.7662C8.75155 16.763 8.9251 16.692 9.05167 16.5687C9.43347 16.1962 9.89137 15.8999 10.398 15.6976C10.9046 15.4952 11.4494 15.3909 11.9999 15.3909C12.5505 15.3909 13.0953 15.4952 13.6019 15.6976C14.1085 15.8999 14.5664 16.1962 14.9482 16.5687C15.0747 16.692 15.2482 16.7631 15.4305 16.7663C15.6128 16.7695 15.789 16.7045 15.9203 16.5857C16.0517 16.4669 16.1273 16.304 16.1307 16.1328C16.1342 15.9616 16.065 15.7962 15.9385 15.6729C15.43 15.1734 14.8186 14.7763 14.1415 14.5058C13.4644 14.2352 12.7358 14.0969 11.9999 14.0992ZM15.922 10.298C13.4073 9.33748 10.5926 9.33748 8.07793 10.298C6.78942 10.7906 5.62242 11.5266 4.64929 12.4603C4.58605 12.5208 4.53611 12.5924 4.50233 12.671C4.46856 12.7496 4.4516 12.8337 4.45244 12.9185C4.45328 13.0033 4.47189 13.0871 4.50721 13.1651C4.54254 13.2431 4.59388 13.3138 4.65831 13.3732C4.72274 13.4326 4.79899 13.4795 4.88272 13.5112C4.96645 13.543 5.05601 13.5589 5.14629 13.5581C5.23658 13.5573 5.32581 13.5398 5.4089 13.5067C5.49198 13.4735 5.5673 13.4253 5.63055 13.3648C6.46384 12.5741 7.45582 11.9463 8.54911 11.5179C9.6424 11.0896 10.8153 10.869 11.9999 10.869C13.1846 10.869 14.3575 11.0896 15.4508 11.5179C16.5441 11.9463 17.5361 12.5741 18.3693 13.3648C18.4971 13.487 18.6713 13.5565 18.8536 13.5581C19.0359 13.5597 19.2115 13.4932 19.3416 13.3732C19.4717 13.2533 19.5458 13.0897 19.5474 12.9185C19.5491 12.7473 19.4783 12.5824 19.3506 12.4603C18.3775 11.5266 17.2105 10.7906 15.922 10.298ZM11.9999 18.4699C11.9097 18.4699 11.8203 18.4866 11.7369 18.519C11.6534 18.5515 11.5777 18.599 11.5138 18.659C11.45 18.7189 11.3993 18.7901 11.3648 18.8684C11.3302 18.9467 11.3125 19.0307 11.3125 19.1155V19.3544C11.3125 19.5256 11.3849 19.6898 11.5138 19.8109C11.6428 19.932 11.8176 20 11.9999 20C12.1823 20 12.3571 19.932 12.4861 19.8109C12.615 19.6898 12.6874 19.5256 12.6874 19.3544V19.1155C12.6874 19.0307 12.6696 18.9467 12.6351 18.8684C12.6005 18.7901 12.5499 18.7189 12.4861 18.659C12.4222 18.599 12.3464 18.5515 12.263 18.519C12.1796 18.4866 12.0902 18.4699 11.9999 18.4699Z" fill="currentColor"/>
<path fill-rule="evenodd" clip-rule="evenodd" d="M1.19837 9.21731C1.13492 9.27763 1.08475 9.34909 1.05072 9.42762C1.01668 9.50614 0.999455 9.59019 1.00001 9.67497C1.00057 9.75975 1.01891 9.84359 1.05397 9.92172C1.08904 9.99984 1.14014 10.0707 1.20438 10.1303C1.26861 10.1899 1.34471 10.237 1.42833 10.2689C1.51195 10.3009 1.60146 10.3171 1.69174 10.3166C1.78202 10.316 1.87131 10.2988 1.9545 10.2659C2.0377 10.233 2.11317 10.185 2.17662 10.1246C3.45902 8.90279 4.98876 7.93418 6.67579 7.27583C8.36283 6.61747 10.1731 6.28268 11.9999 6.29116C13.8268 6.28259 15.637 6.61727 17.324 7.2755C19.011 7.93373 20.5408 8.90221 21.8233 10.1239C21.8867 10.1843 21.9622 10.2323 22.0454 10.2652C22.1286 10.2981 22.2179 10.3153 22.3081 10.3159C22.3984 10.3164 22.4879 10.3002 22.5716 10.2682C22.6552 10.2363 22.7313 10.1892 22.7955 10.1296C22.8598 10.07 22.9109 9.99916 22.946 9.92103C22.9811 9.84291 22.9994 9.75905 23 9.67427C23.0005 9.58948 22.9833 9.50542 22.9493 9.42689C22.9152 9.34836 22.865 9.27691 22.8015 9.2166C21.3691 7.85062 19.6542 6.7743 17.7623 6.05386C14.0671 4.64871 9.93477 4.64871 6.23964 6.05386C4.34696 6.77429 2.63133 7.85086 1.19837 9.21731ZM14.9482 16.5687C14.5664 16.1962 14.1085 15.8999 13.6019 15.6976C13.0953 15.4952 12.5505 15.3909 11.9999 15.3909C11.4494 15.3909 10.9046 15.4952 10.398 15.6976C9.89137 15.8999 9.43347 16.1962 9.05167 16.5687C8.9251 16.692 8.75155 16.763 8.5692 16.7662C8.38684 16.7693 8.21062 16.7043 8.07931 16.5855C7.94799 16.4666 7.87233 16.3037 7.86897 16.1324C7.86561 15.9612 7.93483 15.7957 8.0614 15.6724C8.56992 15.173 9.18133 14.776 9.85843 14.5055C10.5355 14.2351 11.2641 14.0969 11.9999 14.0992C12.7358 14.0969 13.4644 14.2352 14.1415 14.5058C14.8186 14.7763 15.43 15.1734 15.9385 15.6729C16.065 15.7962 16.1342 15.9616 16.1307 16.1328C16.1273 16.304 16.0517 16.4669 15.9203 16.5857C15.789 16.7045 15.6128 16.7695 15.4305 16.7663C15.2482 16.7631 15.0747 16.692 14.9482 16.5687ZM8.76106 16.3869L8.75924 16.3887L8.75924 16.3886M15.922 10.298C13.4073 9.33748 10.5926 9.33748 8.07793 10.298ZM11.9999 19.4699C12.0326 19.4699 12.0662 19.4639 12.0994 19.451C12.1106 19.4466 12.122 19.4414 12.1333 19.4352C12.1554 19.4232 12.1775 19.4076 12.1984 19.388C12.2092 19.3778 12.2196 19.3666 12.2295 19.3544C12.2488 19.3308 12.266 19.3032 12.2797 19.272C12.285 19.26 12.2898 19.2476 12.2938 19.2349C12.2791 19.1892 12.2566 19.1489 12.2295 19.1155C12.2197 19.1034 12.2092 19.0921 12.1984 19.0819C12.1932 19.0771 12.1879 19.0724 12.1826 19.068C12.1666 19.0548 12.15 19.0437 12.1333 19.0346C12.1131 19.0236 12.0925 19.0155 12.0721 19.0099C12.0475 19.0031 12.0231 19 11.9999 19C11.9768 19 11.9524 19.0031 11.9278 19.0099C11.9074 19.0155 11.8868 19.0236 11.8666 19.0346C11.8498 19.0437 11.8333 19.0548 11.8173 19.068C11.812 19.0724 11.8067 19.0771 11.8015 19.0819C11.7907 19.0921 11.7802 19.1034 11.7704 19.1155C11.7433 19.1489 11.7208 19.1892 11.7061 19.2349C11.7101 19.2476 11.7148 19.26 11.7201 19.272C11.7339 19.3032 11.7511 19.3308 11.7704 19.3544C11.7803 19.3666 11.7907 19.3778 11.8015 19.388C11.8224 19.4076 11.8445 19.4232 11.8666 19.4352C11.8779 19.4414 11.8893 19.4466 11.9005 19.451C11.9337 19.4639 11.9673 19.4699 11.9999 19.4699ZM18.3693 13.3648C18.4971 13.487 18.6713 13.5565 18.8536 13.5581ZM18.8536 13.5581C19.0359 13.5597 19.2115 13.4932 19.3416 13.3732ZM19.3416 13.3732C19.4717 13.2533 19.5458 13.0897 19.5474 12.9185ZM19.5474 12.9185C19.5491 12.7473 19.4783 12.5824 19.3506 12.4603ZM19.3506 12.4603C18.3775 11.5266 17.2105 10.7906 15.922 10.298ZM11.7369 18.519C11.8203 18.4866 11.9097 18.4699 11.9999 18.4699C12.0902 18.4699 12.1796 18.4866 12.263 18.519C12.3464 18.5515 12.4222 18.599 12.4861 18.659C12.5499 18.7189 12.6005 18.7901 12.6351 18.8684C12.6696 18.9467 12.6874 19.0307 12.6874 19.1155V19.3544C12.6874 19.5256 12.615 19.6898 12.4861 19.8109C12.3571 19.932 12.1823 20 11.9999 20C11.8176 20 11.6428 19.932 11.5138 19.8109C11.3849 19.6898 11.3125 19.5256 11.3125 19.3544V19.1155C11.3125 19.0307 11.3302 18.9467 11.3648 18.8684C11.3993 18.7901 11.45 18.7189 11.5138 18.659C11.5777 18.599 11.6535 18.5515 11.7369 18.519Z" fill="currentColor"/>
</svg>
